<?xml version="1.0" standalone="no"?>
<!DOCTYPE svg PUBLIC "-//W3C//DTD SVG 20010904//EN"
 "http://www.w3.org/TR/2001/REC-SVG-20010904/DTD/svg10.dtd">
<svg version="1.0" xmlns="http://www.w3.org/2000/svg"
 width="1280.000000pt" height="1280.000000pt" viewBox="0 0 1280.000000 1280.000000"
 preserveAspectRatio="xMidYMid meet">

<g transform="translate(0.000000,1280.000000) scale(0.100000,-0.100000)"
fill="#000000" stroke="none">
<path d="M880 11790 l0 -310 -331 0 -330 0 3 -37 3 -38 325 -5 325 -5 3 -32 3
-33 -331 0 -331 0 3 -37 3 -38 325 -5 325 -5 3 -4747 2 -4748 -325 0 -325 0
-6 -24 c-3 -13 -4 -38 -2 -57 l3 -34 325 -5 c179 -3 326 -7 328 -8 2 -1 2 -19
0 -39 l-3 -38 -325 -5 -325 -5 -3 -34 c-2 -19 -1 -44 2 -57 l6 -24 325 0 325
0 0 -235 0 -235 55 0 55 0 0 235 0 235 40 0 40 0 0 -235 0 -235 55 0 55 0 0
235 0 235 5195 0 5195 0 0 -235 0 -235 50 0 50 0 0 235 0 235 40 0 40 0 0
-235 0 -235 45 0 45 0 0 235 0 235 323 2 322 3 3 57 3 58 -323 2 -323 3 0 40
0 40 323 3 323 2 -3 58 -3 57 -323 3 -322 2 2 4748 3 4747 303 3 302 2 0 40 0
40 -302 2 -303 3 0 30 0 30 303 3 302 2 0 40 0 40 -302 2 -303 3 -3 308 -2
308 -43 -3 -42 -3 -3 -307 -2 -308 -40 0 -40 0 0 311 0 310 -47 -3 -48 -3 -3
-307 -2 -308 -5195 0 -5195 0 0 310 0 310 -55 0 -55 0 0 -310 0 -310 -40 0
-40 0 0 310 0 310 -55 0 -55 0 0 -310z m190 -425 c0 -34 -1 -35 -40 -35 -37 0
-40 2 -40 28 0 37 6 42 47 42 31 0 33 -2 33 -35z m10500 0 l0 -35 -5192 2
c-5000 3 -5193 4 -5196 21 -2 10 -1 25 2 33 5 12 685 14 5196 14 l5190 0 0
-35z m180 -1 c0 -35 -1 -35 -37 -32 -27 2 -39 8 -41 21 -7 33 6 47 43 47 33 0
35 -2 35 -36z m-10680 -4864 l0 -4750 -40 0 -40 0 0 4743 c0 2609 3 4747 7
4750 3 4 21 7 40 7 l33 0 0 -4750z m10500 0 l0 -4750 -5195 0 -5195 0 0 4743
c0 2609 3 4747 7 4750 3 4 2341 7 5195 7 l5188 0 0 -4750z m180 0 l0 -4750
-40 0 -40 0 0 4743 c0 2609 3 4747 7 4750 3 4 21 7 40 7 l33 0 0 -4750z
m-10685 -4915 c0 -39 -1 -40 -37 -43 -38 -3 -38 -3 -38 36 0 47 6 54 45 50 28
-3 30 -6 30 -43z m10505 0 l0 -45 -5192 2 -5193 3 -3 28 c-2 16 -1 35 2 43 5
12 729 14 5196 14 l5190 0 0 -45z m180 -1 l0 -45 -37 3 c-33 3 -38 7 -41 31
-5 45 4 57 43 57 35 0 35 0 35 -46z"/>
<path d="M6141 10461 c-5 -4 -11 -120 -13 -266 l-3 -260 40 -7 c22 -3 49 -9
61 -13 13 -4 25 -1 33 9 8 9 18 16 23 16 5 0 48 27 95 59 46 33 91 57 98 54
31 -11 27 -43 -10 -97 -60 -88 -127 -142 -197 -159 -15 -4 -32 -15 -37 -25 -8
-16 -3 -17 67 -14 83 3 122 -10 122 -39 0 -10 -13 -25 -30 -34 -16 -9 -30 -21
-30 -27 0 -6 -8 -20 -17 -31 -17 -19 -17 -20 0 -14 10 4 26 2 35 -4 15 -9 29
-4 75 25 57 37 107 47 107 22 0 -16 -55 -60 -87 -70 -13 -4 -23 -13 -23 -21 0
-7 -11 -22 -25 -33 -16 -13 -23 -26 -19 -36 4 -10 0 -18 -10 -22 -19 -7 -21
-24 -3 -24 7 0 31 18 52 41 22 22 51 46 65 53 27 14 286 20 294 7 2 -3 7 -96
10 -205 3 -110 7 -200 9 -202 2 -2 28 22 59 54 l57 57 1 425 c2 422 -6 655
-21 697 -6 15 -18 23 -41 25 -24 2 -38 11 -53 35 -14 23 -28 32 -47 33 -38 0
-47 -40 -35 -157 11 -106 7 -123 -29 -123 l-27 0 7 78 c3 42 9 105 12 140 l6
63 -281 -2 c-154 -2 -285 -5 -290 -8z m504 -261 c-3 -5 -10 -10 -16 -10 -5 0
-9 5 -9 10 0 6 7 10 16 10 8 0 12 -4 9 -10z"/>
<path d="M8238 10462 c-14 -3 -18 -14 -19 -45 -1 -23 -1 -46 0 -51 1 -5 -3
-33 -9 -63 -25 -121 -18 -188 28 -257 l26 -38 -23 -19 c-36 -29 -60 -23 -103
26 -46 52 -64 56 -72 18 -7 -37 -3 -119 7 -129 23 -23 -10 -118 -44 -127 -13
-3 -26 -4 -31 -1 -4 3 -8 136 -8 296 l0 290 -157 -159 c-141 -142 -403 -422
-509 -543 -21 -25 -44 -48 -50 -52 -6 -4 -24 -26 -40 -50 -15 -24 -44 -61 -63
-82 -25 -29 -31 -41 -20 -45 7 -2 20 -10 27 -18 19 -19 74 -14 156 14 37 13
71 22 73 19 13 -13 -49 -69 -107 -96 -87 -41 -93 -44 -98 -59 -6 -18 73 -7
115 16 29 15 35 16 43 3 8 -12 15 -11 52 9 24 13 52 31 63 40 21 18 124 88
157 107 11 7 34 26 52 43 17 17 37 31 44 31 7 0 36 25 64 55 28 30 56 55 63
55 6 0 22 11 35 25 26 28 57 35 43 10 -5 -8 -68 -77 -139 -153 -72 -75 -155
-164 -185 -197 -89 -98 -182 -198 -214 -230 -16 -17 -50 -53 -75 -80 -123
-137 -378 -404 -414 -435 -81 -68 -175 -168 -209 -221 -19 -30 -45 -63 -57
-74 -22 -20 -45 -55 -35 -55 3 0 23 16 45 36 38 34 60 38 60 9 0 -8 -8 -20
-19 -27 -16 -11 -117 -121 -268 -292 -61 -68 -57 -79 22 -51 21 8 41 12 43 10
3 -2 -2 -26 -11 -52 -9 -26 -14 -49 -12 -51 8 -9 48 22 73 56 25 34 63 77 209
232 28 30 54 53 56 50 7 -7 22 -731 19 -900 -3 -178 -12 -284 -23 -273 -5 5
-11 45 -13 90 -3 45 -8 94 -12 109 -7 25 -8 25 -30 -22 -13 -27 -24 -58 -24
-69 -1 -20 -1 -20 -15 -1 -8 11 -15 30 -15 43 0 13 -4 23 -9 23 -17 0 -22 -19
-12 -39 8 -14 8 -20 -1 -23 -12 -4 -41 -105 -33 -118 3 -5 -3 -23 -14 -40 -10
-18 -21 -28 -24 -23 -9 16 -7 132 3 138 20 12 9 48 -26 83 -30 30 -33 37 -20
44 20 11 20 32 2 48 -13 10 -66 133 -66 152 0 3 9 8 20 11 17 4 19 11 14 39
-11 56 -22 68 -59 68 -25 0 -35 5 -40 20 -6 18 -15 20 -86 20 -44 0 -89 5 -99
10 -16 8 -26 3 -61 -33 l-42 -42 -4 -139 c-4 -118 -2 -141 12 -156 15 -17 16
-65 13 -513 -1 -273 0 -499 5 -503 4 -4 13 1 21 11 13 18 15 14 21 -37 8 -65
4 -119 -20 -243 -13 -71 -17 -154 -19 -390 -1 -165 1 -313 5 -330 l7 -30 1 28
c1 29 32 67 54 67 11 0 12 -13 5 -67 -5 -37 -13 -70 -18 -73 -16 -10 -30 -60
-30 -106 0 -33 -5 -47 -20 -56 -18 -11 -18 -14 -3 -30 21 -24 33 -23 33 3 0
37 19 59 50 59 16 0 32 -5 36 -11 5 -8 10 -6 16 5 6 11 23 16 57 16 47 0 50 2
90 55 37 48 89 144 126 230 30 69 57 131 68 153 12 26 33 30 22 5 -4 -10 -11
-34 -16 -53 -4 -19 -17 -42 -28 -52 -16 -12 -21 -27 -20 -65 2 -117 -7 -169
-44 -244 -35 -73 -58 -169 -40 -169 18 0 113 130 113 155 0 13 5 27 11 30 5 4
8 12 6 18 -5 15 10 47 23 47 5 0 10 -10 12 -22 3 -25 26 -36 32 -16 2 7 13 47
25 88 36 122 39 133 46 183 3 26 12 65 20 85 12 32 14 -20 14 -403 0 -256 -4
-458 -9 -483 -7 -30 -7 -49 1 -64 19 -36 27 -75 18 -89 -7 -11 -20 -2 -55 39
-25 28 -50 52 -55 52 -11 0 6 -45 31 -80 11 -16 20 -35 20 -43 0 -9 13 -29 29
-45 33 -32 52 -122 26 -122 -13 0 -157 79 -353 194 -62 36 -115 66 -117 66 -9
0 -217 127 -261 160 -58 44 -134 84 -185 98 -33 9 -36 8 -32 -9 6 -21 -16 -26
-33 -9 -6 6 -26 19 -45 29 -179 96 -271 142 -275 138 -3 -3 2 -19 10 -36 20
-37 20 -41 0 -41 -9 0 -14 -6 -11 -12 2 -7 17 -13 34 -13 21 0 43 -12 71 -37
23 -21 71 -51 108 -69 37 -17 79 -39 93 -48 42 -29 101 -65 186 -116 44 -26
102 -64 128 -84 27 -21 65 -47 85 -58 288 -158 459 -247 512 -264 36 -12 71
-29 77 -38 10 -13 12 -157 10 -655 -1 -503 1 -640 10 -643 10 -4 13 353 13
1748 l0 1752 25 34 c15 18 33 33 41 33 12 0 14 51 14 352 0 270 -3 349 -12
340 -7 -7 -13 -58 -15 -134 -2 -68 -8 -144 -14 -170 -8 -33 -7 -52 0 -67 16
-28 14 -54 -8 -116 -11 -30 -17 -64 -14 -75 3 -12 0 -20 -6 -20 -9 0 -12 103
-10 413 l2 412 41 50 41 49 5 488 5 488 129 129 c74 74 126 134 122 140 -10
15 9 39 106 140 46 47 135 142 197 211 147 162 159 172 184 157 17 -11 53 22
359 333 659 669 690 703 769 836 69 116 119 208 119 219 0 6 -662 3 -692 -3z
m-415 -471 c-5 -117 -9 -144 -22 -149 -9 -3 -34 -20 -57 -37 -22 -17 -56 -37
-75 -44 -102 -39 -159 -81 -110 -81 18 0 20 -4 15 -27 -3 -16 -15 -36 -26 -45
-32 -28 -66 -20 -37 9 7 7 3 12 -15 17 -17 4 -26 13 -26 26 0 22 75 110 94
110 6 0 40 29 75 65 36 36 68 65 73 65 4 0 8 9 8 21 0 18 26 85 76 198 26 60
34 24 27 -128z m567 -74 c0 -16 -81 -97 -98 -97 -13 0 -57 79 -48 87 20 21
146 29 146 10z m-325 -217 c3 -5 -1 -26 -10 -46 -8 -20 -15 -49 -15 -65 0 -17
-8 -34 -22 -43 -43 -30 -65 -12 -32 25 10 11 14 25 10 36 -6 15 -17 8 -64 -42
-31 -33 -64 -71 -72 -84 -26 -42 -114 -121 -124 -111 -8 8 223 268 246 278 4
2 8 17 8 32 0 46 51 59 75 20z m-117 -268 c-7 -10 -37 -44 -68 -77 -30 -33
-74 -82 -98 -108 -24 -26 -48 -47 -53 -47 -16 0 11 43 52 81 22 20 39 45 39
56 0 11 10 25 23 30 13 6 31 27 41 46 10 22 25 37 39 39 31 6 40 -1 25 -20z
m-339 -212 c-34 -38 -66 -67 -71 -64 -9 6 14 36 78 103 64 66 59 34 -7 -39z
m-333 -465 c-16 -16 -36 -20 -36 -7 0 14 12 22 32 22 17 0 18 -2 4 -15z m-296
-169 c0 -16 -18 -31 -27 -22 -8 8 5 36 17 36 5 0 10 -6 10 -14z m-57 -58 c-11
-45 -93 -113 -93 -78 0 20 34 63 65 81 16 11 31 19 32 19 0 0 -1 -10 -4 -22z
m-143 -159 c-17 -14 -26 -17 -28 -9 -5 14 16 30 38 30 10 -1 7 -7 -10 -21z
m74 -114 c-14 -22 -34 -34 -34 -20 0 5 42 45 47 45 2 0 -4 -11 -13 -25z m-64
-65 c0 -5 -9 -14 -20 -20 -16 -8 -20 -8 -20 4 0 8 8 17 18 19 9 3 18 5 20 6 1
0 2 -3 2 -9z m-215 -230 c-11 -21 -23 -30 -40 -30 -35 0 -31 22 8 42 45 24 50
22 32 -12z m-335 -627 c0 -39 -9 -65 -21 -57 -10 6 -12 74 -3 99 10 24 24 -1
24 -42z m90 -294 c0 -18 -4 -28 -10 -24 -6 4 -9 19 -8 35 3 37 18 28 18 -11z
m390 2 c0 -22 -16 -36 -24 -22 -8 12 3 41 15 41 5 0 9 -9 9 -19z m-382 -323
c0 -70 3 -131 7 -137 9 -16 -4 -51 -19 -51 -7 0 -19 -11 -26 -25 -10 -19 -16
-22 -27 -14 -18 16 -17 26 10 62 19 28 22 45 23 137 1 58 5 139 10 180 l8 75
7 -50 c4 -27 7 -107 7 -177z m-74 -270 c10 17 26 15 26 -3 0 -10 -10 -15 -30
-15 -24 0 -30 4 -30 22 0 21 1 21 13 3 10 -12 16 -14 21 -7z m392 -70 c-4 -35
-13 -99 -21 -143 -53 -287 -42 -245 -105 -378 -62 -129 -66 -202 -8 -150 17
15 18 14 18 -15 0 -41 17 -50 32 -15 l11 28 10 -42 c8 -34 6 -48 -9 -80 -20
-40 -32 -45 -48 -20 -7 11 -6 24 4 41 24 46 0 41 -45 -10 -25 -28 -44 -43 -45
-34 0 8 -9 21 -20 28 -15 9 -20 23 -20 60 0 26 4 52 9 58 6 5 12 59 15 119 16
320 18 330 62 319 19 -5 24 -2 24 12 0 11 6 30 14 44 58 106 76 144 76 155 0
23 30 85 41 85 8 0 10 -19 5 -62z m-97 -944 c-7 -13 -17 -24 -22 -24 -11 0 0
50 16 69 18 21 23 -15 6 -45z m-484 -860 c14 -9 25 -20 25 -25 0 -17 -35 -9
-65 16 -29 23 -29 24 -7 25 12 0 34 -7 47 -16z m70 -54 c3 -5 1 -10 -4 -10 -6
0 -11 5 -11 10 0 6 2 10 4 10 3 0 8 -4 11 -10z m603 -361 c30 -17 51 -33 49
-36 -8 -7 -117 47 -117 58 0 14 12 11 68 -22z"/>
<path d="M6125 9496 c-4 -105 -3 -171 3 -183 9 -15 11 -11 17 21 4 21 5 61 1
91 l-6 52 64 32 c55 27 124 86 114 97 -2 1 -21 -1 -42 -6 -45 -10 -66 -4 -66
19 0 25 -20 41 -51 41 l-26 0 -8 -164z"/>
<path d="M6245 9370 c-7 -12 2 -30 16 -30 5 0 9 9 9 20 0 21 -15 27 -25 10z"/>
<path d="M7793 8829 c4 -30 9 -96 13 -147 4 -51 10 -95 15 -98 13 -8 60 27 70
53 5 13 15 23 24 23 8 0 15 4 15 9 0 20 -31 81 -50 99 -11 11 -31 39 -43 63
-33 65 -51 64 -44 -2z"/>
<path d="M6127 8673 c-11 -61 -8 -143 4 -143 6 0 19 10 30 23 46 53 66 146 32
146 -10 -1 -27 2 -39 6 -18 6 -22 2 -27 -32z"/>
<path d="M8000 8574 c0 -23 3 -56 6 -73 6 -29 10 -32 33 -26 53 13 51 36 -10
107 l-28 33 -1 -41z"/>
<path d="M8033 8340 c-18 -11 -33 -28 -33 -37 0 -26 11 -63 19 -63 10 0 47 63
55 93 8 32 2 33 -41 7z"/>
<path d="M8178 8309 c-10 -5 -18 -20 -17 -32 0 -12 -5 -42 -12 -67 -6 -25 -12
-61 -13 -81 -1 -20 -7 -43 -13 -50 -14 -18 -48 -127 -42 -134 8 -8 71 17 105
41 24 17 33 35 43 79 7 31 10 59 7 62 -3 3 -17 -2 -30 -11 -27 -17 -56 -21
-56 -7 0 5 8 11 18 13 27 8 82 96 82 133 0 18 -8 39 -18 48 -21 19 -30 20 -54
6z"/>
<path d="M6516 8164 c-58 -63 -74 -95 -26 -51 14 12 37 28 53 36 15 8 27 22
27 32 0 10 5 21 10 24 12 7 14 26 3 24 -5 -1 -35 -30 -67 -65z"/>
<path d="M6359 7771 c-17 -22 -42 -42 -55 -45 -13 -4 -39 -21 -58 -39 -18 -17
-64 -61 -101 -97 -37 -35 -76 -69 -88 -75 -24 -11 -36 -45 -17 -45 7 0 30 18
52 40 22 22 47 40 54 40 8 0 19 11 24 25 5 14 15 25 21 25 7 0 25 16 42 35 16
19 35 35 42 35 6 0 35 23 64 52 36 35 55 48 60 40 5 -9 13 -7 26 8 16 18 17
23 5 30 -26 16 -38 11 -71 -29z"/>
<path d="M6183 7708 c-11 -13 -24 -30 -28 -38 -8 -13 -7 -13 11 0 21 16 54 51
54 57 0 10 -19 0 -37 -19z"/>
<path d="M8420 7473 c0 -119 -8 -143 -49 -159 -56 -22 -120 -57 -124 -69 -3
-5 -1 -20 4 -32 8 -23 9 -23 238 -23 126 0 236 3 245 6 12 5 16 20 16 61 0 52
2 55 30 66 36 13 38 42 12 122 -16 48 -18 50 -58 53 -36 3 -41 6 -37 23 5 18
-1 19 -136 19 l-141 0 0 -67z"/>
<path d="M8738 7513 c7 -3 16 -2 19 1 4 3 -2 6 -13 5 -11 0 -14 -3 -6 -6z"/>
<path d="M5972 7420 c-18 -11 -41 -34 -50 -50 -10 -18 -25 -30 -38 -30 -22 0
-72 -46 -61 -56 16 -16 98 33 139 83 24 29 49 53 56 53 6 0 12 5 12 10 0 16
-22 12 -58 -10z"/>
<path d="M8826 7292 c-3 -5 1 -18 9 -28 14 -18 14 -18 15 3 0 23 -15 39 -24
25z"/>
<path d="M9076 7211 c-43 -5 -50 -9 -52 -31 -1 -14 -11 -110 -23 -215 -20
-181 -21 -248 -25 -1465 -2 -872 -7 -1298 -14 -1348 -14 -91 -52 -162 -110
-211 -87 -71 -92 -77 -87 -111 2 -18 11 -37 20 -44 15 -11 14 -14 -5 -38 -11
-15 -36 -36 -55 -48 -45 -28 -44 -37 3 -37 20 -1 42 -1 48 -2 24 -2 23 -34 0
-76 -22 -39 -23 -44 -8 -50 10 -4 26 5 45 25 29 31 67 40 67 16 0 -8 -20 -35
-45 -62 -25 -26 -45 -52 -45 -57 0 -6 -7 -19 -17 -29 -15 -17 -15 -18 0 -18 9
0 29 18 43 40 14 22 34 41 43 44 9 2 58 4 109 5 103 1 160 18 235 69 55 39 67
40 67 7 0 -24 -9 -36 -65 -82 -14 -13 -24 -27 -21 -31 10 -16 108 25 132 54
20 25 25 27 43 17 37 -23 40 -19 154 151 25 38 51 97 72 165 51 166 58 150 51
-118 -4 -127 -3 -231 1 -231 8 0 31 33 73 103 22 37 22 43 21 350 -1 172 -6
316 -11 321 -5 5 -13 -9 -20 -33 -16 -60 -29 -50 -27 22 2 76 -17 84 -42 19
-10 -24 -21 -43 -27 -43 -5 0 -13 -7 -17 -15 -4 -8 -16 -14 -26 -14 -10 0 -24
-7 -31 -15 -7 -8 -23 -15 -36 -15 -19 0 -24 5 -24 25 0 36 -26 42 -56 14 -23
-22 -25 -22 -38 -4 -12 17 -16 18 -32 5 -9 -8 -25 -28 -35 -45 l-18 -29 -16
37 c-9 21 -22 40 -30 44 -8 3 -15 11 -15 19 0 8 -4 14 -9 14 -10 0 -83 56
-119 91 -26 26 -52 75 -52 99 0 9 -6 22 -12 29 -10 9 -13 278 -13 1274 l0
1262 40 13 c48 15 75 28 136 64 58 35 71 35 67 1 -2 -19 -17 -37 -45 -58 -36
-26 -56 -55 -37 -55 27 0 113 39 130 59 20 23 25 24 44 13 19 -12 24 -9 53 21
40 43 97 123 97 137 0 6 -45 10 -124 10 -103 0 -127 -3 -141 -17 -11 -10 -19
-13 -23 -6 -9 15 -86 22 -146 14z m244 -51 c0 -5 -5 -10 -11 -10 -5 0 -7 5 -4
10 3 6 8 10 11 10 2 0 4 -4 4 -10z m9 -3177 c-30 -85 -66 -138 -118 -174 -30
-21 -59 -46 -64 -55 -9 -15 -6 -16 22 -11 22 5 31 3 31 -6 0 -25 -24 -37 -71
-37 -61 0 -66 13 -36 105 28 88 33 95 63 95 27 0 90 36 142 81 40 36 43 36 31
2z m-77 -279 c-9 -20 -18 -31 -20 -25 -2 6 -10 11 -18 11 -21 0 -17 12 13 36
37 29 46 21 25 -22z m68 -68 c0 -3 -4 -8 -10 -11 -5 -3 -10 -1 -10 4 0 6 5 11
10 11 6 0 10 -2 10 -4z"/>
<path d="M9790 7210 c-8 -5 -42 -6 -76 -3 -54 5 -63 3 -72 -13 -6 -11 -13
-151 -16 -329 -4 -171 -7 -330 -7 -355 -2 -67 15 -267 23 -275 11 -11 28 5 28
27 0 11 9 33 20 48 17 24 18 29 5 34 -21 8 -19 49 4 77 l18 23 12 -23 c8 -14
12 -61 10 -129 -2 -113 6 -162 25 -162 6 0 31 18 56 39 l45 39 0 493 c0 272
-1 500 -3 507 -5 14 -50 16 -72 2z m-12 -63 c7 -8 7 -18 2 -27 -6 -8 -10 -25
-10 -37 0 -16 -6 -23 -20 -23 -17 0 -20 7 -20 43 0 24 3 47 7 50 10 11 30 8
41 -6z m38 -114 c-10 -10 -19 5 -10 18 6 11 8 11 12 0 2 -7 1 -15 -2 -18z
m-84 -511 c-6 -62 -17 -74 -34 -36 -10 22 -10 28 0 32 16 5 15 22 -2 22 -7 0
-16 13 -18 28 -5 36 0 52 17 52 7 0 16 10 20 23 11 34 24 -55 17 -121z"/>
<path d="M5183 6484 c-18 -9 -33 -20 -33 -25 0 -5 -7 -9 -15 -9 -9 0 -20 -10
-25 -22 -5 -13 -41 -57 -79 -98 -39 -41 -71 -83 -71 -92 0 -10 2 -18 5 -18 3
0 37 35 77 77 40 43 97 102 125 133 29 30 53 58 53 63 0 9 1 9 -37 -9z"/>
<path d="M4896 6370 c-26 -28 -46 -55 -44 -61 4 -11 84 66 101 96 17 31 -11
13 -57 -35z"/>
<path d="M4759 6015 c-41 -46 -82 -84 -91 -85 -24 0 -23 22 2 38 11 7 20 18
20 26 0 9 -7 12 -20 9 -11 -3 -20 -9 -20 -15 0 -5 -10 -22 -21 -37 -12 -16
-18 -34 -15 -40 6 -10 -6 -15 -27 -12 -4 1 -12 -10 -17 -23 -5 -13 -14 -27
-19 -31 -17 -10 -13 -21 14 -33 20 -9 27 -8 37 7 12 16 170 191 226 249 12 12
22 25 22 27 0 17 -26 -6 -91 -80z"/>
<path d="M4710 6044 c0 -8 5 -12 10 -9 6 3 10 10 10 16 0 5 -4 9 -10 9 -5 0
-10 -7 -10 -16z"/>
<path d="M9756 6011 c-18 -19 -16 -51 2 -51 14 0 34 52 24 62 -5 5 -16 0 -26
-11z"/>
<path d="M9847 5985 c-13 -42 -28 -147 -22 -154 11 -10 32 27 38 67 7 46 -6
118 -16 87z"/>
<path d="M4345 5940 c3 -5 10 -10 16 -10 5 0 9 5 9 10 0 6 -7 10 -16 10 -8 0
-12 -4 -9 -10z"/>
<path d="M9816 5792 c-17 -32 -31 -102 -21 -102 11 0 50 23 57 34 4 6 8 30 8
54 0 50 -22 57 -44 14z"/>
<path d="M3683 5713 c-26 -30 -51 -62 -54 -72 -4 -9 -31 -42 -60 -73 -30 -30
-92 -99 -138 -152 -46 -53 -87 -96 -93 -96 -10 0 -168 -159 -236 -239 -26 -31
-76 -85 -112 -122 -36 -36 -120 -124 -187 -196 -117 -124 -122 -131 -107 -151
12 -18 23 -21 64 -18 26 2 73 14 104 27 31 12 59 19 63 16 14 -14 -61 -76
-133 -111 -41 -20 -74 -40 -74 -46 0 -15 90 0 128 21 40 23 46 24 38 4 -9 -24
15 -17 68 18 27 17 56 37 65 42 77 49 98 64 110 79 7 9 19 16 25 16 7 0 25 14
41 30 16 17 35 30 43 30 8 0 39 27 69 60 31 33 63 60 72 60 9 0 42 29 74 65
32 36 65 65 73 65 22 0 -1 -27 -175 -210 -81 -85 -203 -216 -271 -290 -212
-232 -644 -690 -651 -690 -4 0 -39 -31 -78 -70 -58 -56 -71 -75 -71 -100 0
-27 3 -30 20 -25 14 4 20 2 20 -8 0 -8 -9 -17 -19 -20 -24 -6 -38 -94 -23
-147 l9 -35 168 165 c283 277 334 329 505 515 260 283 256 278 286 348 9 20
30 47 46 59 17 11 36 36 44 54 7 18 27 42 44 54 16 12 30 30 30 40 0 24 35 43
65 36 18 -5 33 4 72 47 66 70 173 184 263 282 41 44 106 114 146 155 39 41 96
102 126 135 30 33 80 87 111 120 31 32 57 64 57 70 0 34 -223 174 -256 161
-20 -8 -8 -26 16 -26 11 0 38 -19 62 -42 24 -23 53 -42 67 -42 13 -1 28 -8 34
-18 9 -13 -5 -34 -79 -115 -49 -54 -103 -118 -119 -141 -16 -24 -62 -74 -103
-110 -138 -125 -181 -174 -287 -329 -39 -58 -71 -81 -87 -65 -7 7 -4 19 11 37
11 15 18 31 15 36 -8 14 -37 -6 -74 -48 -158 -185 -180 -207 -194 -193 -7 7
-2 18 14 34 14 12 68 69 120 127 108 118 174 185 245 249 28 24 55 54 60 67 6
12 69 86 140 163 72 78 149 163 173 188 57 63 85 102 74 102 -6 0 -46 -39 -91
-87 -44 -48 -83 -84 -87 -81 -3 4 24 37 60 73 36 36 66 70 66 76 0 26 -36 0
-107 -77 -77 -84 -80 -85 -98 -67 -10 10 -26 18 -34 18 -24 0 -19 18 17 61 38
44 26 58 -20 24 l-30 -22 7 22 c7 23 10 23 -52 5 -26 -7 -29 2 -8 29 8 11 15
30 15 43 0 13 7 26 15 29 8 4 15 11 15 18 0 6 11 38 24 71 26 64 51 79 84 53
15 -12 16 -11 4 4 -7 9 -40 32 -72 51 l-59 35 -48 -55z m-8 -313 c-3 -5 -11
-10 -16 -10 -6 0 -7 5 -4 10 3 6 11 10 16 10 6 0 7 -4 4 -10z m159 -165 c-6
-16 -24 -21 -24 -7 0 11 11 22 21 22 5 0 6 -7 3 -15z m-374 -89 c0 -3 -101
-85 -165 -133 -40 -31 -103 -67 -147 -84 -66 -26 -80 -37 -73 -60 3 -9 1 -20
-5 -24 -5 -3 -8 -16 -5 -28 4 -16 -1 -26 -16 -35 -20 -13 -21 -12 -16 10 5 18
1 26 -16 33 -12 6 -23 17 -25 25 -3 18 64 100 82 100 6 0 43 32 81 70 69 70
90 81 113 58 9 -9 16 -8 30 5 10 9 25 17 33 18 8 0 37 11 64 24 49 24 65 29
65 21z m290 0 c0 -3 -4 -8 -10 -11 -5 -3 -10 -1 -10 4 0 6 5 11 10 11 6 0 10
-2 10 -4z m-560 -663 c-1 -15 -128 -148 -135 -141 -4 4 21 39 56 77 60 66 79
81 79 64z m-375 -528 c-49 -42 -64 -48 -58 -26 3 11 21 26 41 35 50 20 52 20
17 -9z m-315 -190 c-7 -8 -16 -15 -21 -15 -14 0 -11 38 4 43 20 7 31 -11 17
-28z m-45 -32 c-12 -50 -104 -126 -93 -78 4 17 79 104 92 105 4 0 5 -12 1 -27z
m-115 -123 c0 -5 -7 -10 -16 -10 -8 0 -12 5 -9 10 3 6 10 10 16 10 5 0 9 -4 9
-10z"/>
<path d="M4950 5141 c0 -15 53 -62 93 -83 27 -13 38 -15 35 -6 -3 7 -18 20
-34 28 -16 8 -31 19 -33 23 -5 13 -44 47 -53 47 -4 0 -8 -4 -8 -9z"/>
<path d="M9707 5006 c-6 -39 1 -76 14 -76 5 0 9 25 9 55 0 61 -14 74 -23 21z"/>
<path d="M5130 5010 c0 -5 9 -10 21 -10 11 0 17 5 14 10 -3 6 -13 10 -21 10
-8 0 -14 -4 -14 -10z"/>
<path d="M5210 4959 c0 -5 8 -13 18 -16 30 -12 102 -64 102 -74 0 -6 15 -16
34 -24 19 -8 37 -19 41 -25 11 -17 43 -31 50 -20 3 5 -9 17 -27 26 -18 9 -51
32 -73 51 -44 38 -49 41 -85 64 -36 22 -60 30 -60 18z"/>
<path d="M5315 4950 c3 -5 14 -10 23 -10 15 0 15 2 2 10 -20 13 -33 13 -25 0z"/>
<path d="M3530 4830 c0 -5 4 -10 9 -10 6 0 13 5 16 10 3 6 -1 10 -9 10 -9 0
-16 -4 -16 -10z"/>
<path d="M5740 4766 c8 -8 26 -17 40 -21 23 -6 23 -5 -5 14 -34 24 -57 28 -35
7z"/>
<path d="M7328 4703 l-68 -4 0 -227 c0 -229 16 -436 44 -567 17 -79 25 -105
35 -105 3 0 35 25 70 56 59 51 66 54 77 39 11 -14 8 -27 -18 -78 -17 -33 -46
-73 -64 -90 -42 -36 -42 -46 -3 -54 36 -7 46 -25 31 -57 -7 -15 -6 -29 2 -44
l11 -21 30 19 c59 39 78 11 24 -35 -17 -14 -28 -29 -25 -33 4 -4 55 -6 114 -4
125 3 183 19 264 73 31 22 59 36 62 31 12 -20 -10 -65 -45 -93 -22 -17 -39
-37 -39 -44 0 -20 94 15 129 49 25 24 31 26 49 15 18 -11 24 -9 53 22 45 48
134 186 150 234 17 51 22 57 42 49 28 -10 30 -67 18 -418 -9 -273 -9 -341 1
-348 20 -13 63 -5 63 12 1 8 6 24 13 35 10 17 13 18 22 5 5 -8 10 -25 10 -37
0 -12 4 -24 9 -27 16 -10 176 -17 188 -9 20 14 67 305 57 358 -4 27 -1 33 35
54 22 14 44 35 50 48 10 21 8 23 -14 23 -18 0 -28 8 -35 25 -8 20 -16 25 -44
25 -31 0 -36 4 -50 43 -25 71 -27 108 -7 167 10 30 17 58 14 63 -2 4 -26 7
-53 7 -49 0 -49 0 -69 -45 -11 -25 -23 -61 -27 -80 -7 -37 -27 -61 -44 -50
-12 8 -13 62 -1 70 12 7 61 94 61 109 0 6 -26 23 -58 37 -49 22 -66 37 -104
90 -86 122 -118 259 -118 509 l0 158 -40 16 c-22 9 -47 16 -54 16 -21 0 -28
-102 -21 -291 3 -91 1 -170 -4 -178 -6 -10 -13 -10 -29 -2 -28 15 -48 5 -62
-30 -16 -39 -50 -40 -50 -1 0 21 -14 38 -64 80 -36 28 -69 52 -74 52 -12 0
-64 81 -81 127 -7 17 -23 40 -35 52 l-22 21 -21 -22 c-38 -43 -59 -93 -98
-233 -1 -5 -6 -1 -10 10 -3 11 -13 32 -21 47 -16 30 -18 88 -5 134 5 19 5 37
-1 48 -7 13 -5 22 6 35 9 10 16 25 16 33 0 9 7 21 15 28 8 7 15 17 15 22 0 6
10 23 21 40 35 49 12 53 -223 41z m138 -230 c-10 -10 -19 5 -10 18 6 11 8 11
12 0 2 -7 1 -15 -2 -18z m167 -340 c7 -98 1 -114 -47 -112 -17 1 -23 3 -13 6
9 2 18 9 18 14 1 5 2 12 3 17 7 29 19 130 17 145 -1 9 2 17 7 17 5 0 12 -39
15 -87z m-63 -143 c0 -5 -4 -10 -10 -10 -5 0 -10 5 -10 10 0 6 5 10 10 10 6 0
10 -4 10 -10z m410 6 c0 -2 -11 -28 -24 -58 -30 -68 -62 -106 -120 -143 -54
-34 -62 -60 -16 -50 24 5 30 3 30 -9 0 -9 -12 -21 -26 -26 -27 -11 -97 -14
-106 -5 -5 5 9 72 32 147 11 36 39 56 61 43 6 -4 23 4 37 18 15 13 41 32 58
40 17 9 36 23 43 31 12 14 31 22 31 12z m-70 -268 c-1 -24 -27 -49 -44 -42
-20 8 -20 18 0 38 19 19 44 21 44 4z m510 -138 c0 -38 -9 -60 -26 -60 -17 0
-19 71 -2 88 16 16 28 5 28 -28z m134 -307 c-8 -35 -13 -43 -24 -43 -4 0 -3
16 3 35 12 41 30 48 21 8z"/>
<path d="M9471 4556 c-18 -21 -26 -103 -11 -121 7 -8 16 -15 20 -15 8 0 27 59
35 113 5 32 3 37 -13 37 -11 0 -25 -6 -31 -14z"/>
<path d="M9701 4547 c-11 -13 -10 -20 2 -37 17 -25 27 -9 18 29 -6 21 -8 22
-20 8z"/>
<path d="M7895 4490 c-3 -5 -1 -10 4 -10 6 0 11 5 11 10 0 6 -2 10 -4 10 -3 0
-8 -4 -11 -10z"/>
<path d="M9520 4465 c0 -8 5 -15 10 -15 6 0 10 7 10 15 0 8 -4 15 -10 15 -5 0
-10 -7 -10 -15z"/>
<path d="M9845 4420 c-3 -5 -1 -10 4 -10 6 0 11 5 11 10 0 6 -2 10 -4 10 -3 0
-8 -4 -11 -10z"/>
<path d="M9690 4331 c0 -5 7 -11 15 -15 9 -3 15 0 15 9 0 8 -7 15 -15 15 -8 0
-15 -4 -15 -9z"/>
<path d="M6910 4256 c0 -8 5 -18 10 -21 6 -3 10 3 10 14 0 12 -4 21 -10 21 -5
0 -10 -6 -10 -14z"/>
<path d="M6914 4084 c-7 -50 -7 -70 3 -82 10 -14 12 -3 13 66 0 45 -1 82 -3
82 -2 0 -7 -30 -13 -66z"/>
<path d="M9776 3901 c-10 -16 5 -114 16 -103 14 14 15 104 1 109 -6 2 -14 -1
-17 -6z"/>
<path d="M6918 3634 c-10 -16 -14 -111 -5 -120 14 -14 18 4 15 67 -2 35 -6 59
-10 53z"/>
<path d="M6917 3483 c-11 -10 -8 -51 3 -58 6 -4 10 8 10 29 0 37 -2 41 -13 29z"/>
<path d="M8700 3334 c0 -8 5 -12 10 -9 6 4 8 11 5 16 -9 14 -15 11 -15 -7z"/>
<path d="M6910 3219 c-7 -11 -9 -27 -6 -34 2 -7 6 -113 7 -234 1 -122 6 -221
10 -221 5 0 9 115 9 255 0 140 -2 255 -5 255 -2 0 -9 -9 -15 -21z"/>
</g>
</svg>
